<svg width="68" height="95" fill="none" xmlns="http://www.w3.org/2000/svg"><g clip-path="url(#clip0)"><path d="M64.9697 0h-62.64C1.0414 0 0 1.0282 0 2.3002v90.4072c0 1.272 1.0414 2.3002 2.3297 2.3002h62.64c1.2883 0 2.3297-1.0282 2.3297-2.3002V2.3002C67.2917 1.0282 66.2502 0 64.9697 0z" fill="url(#paint0_linear)"/><path d="M60.858 4.0977H6.4337c-1.2497 0-2.268 1.0053-2.268 2.2468v74.7478c0 1.2415 1.0183 2.2393 2.268 2.2393H60.858c1.2574 0 2.268-1.0054 2.268-2.2393V6.3445c0-1.2415-1.0106-2.2468-2.268-2.2468z" fill="#fff"/><path d="M44.7737 39.636h-22.248c-1.0183 0-1.8437-.8149-1.8437-1.8203V15.8422c0-1.0053.8254-1.8203 1.8437-1.8203h22.248c1.0183 0 1.8437.815 1.8437 1.8203v21.9659c0 1.0054-.8254 1.8279-1.8437 1.8279z" fill="url(#paint1_linear)"/><path d="M33.6497 92.5475c1.8916 0 3.4251-1.514 3.4251-3.3817s-1.5335-3.3817-3.4251-3.3817c-1.8917 0-3.4252 1.514-3.4252 3.3817s1.5335 3.3817 3.4252 3.3817z" fill="#fff"/><path d="M53.0357 51.015H14.256c-.9797 0-1.782-.7921-1.782-1.7594s.8023-1.7594 1.782-1.7594h38.772c.9797 0 1.782.7921 1.782 1.7594s-.7946 1.7594-1.7743 1.7594z" fill="url(#paint2_linear)"/><path opacity=".6" d="M46.4708 60.764H13.608c-.6249 0-1.1263-.5027-1.1263-1.112v-.1218c0-.617.5092-1.112 1.1263-1.112h32.8628c.6249 0 1.1263.5026 1.1263 1.112v.1218c.0077.6093-.5014 1.112-1.1263 1.112z" fill="url(#paint3_linear)"/><path opacity=".3" d="M40.2146 66.9562H13.5c-.5631 0-1.026-.457-1.026-1.013v-.3351c0-.556.4629-1.013 1.026-1.013h26.7068c.5632 0 1.026.457 1.026 1.013v.3351c0 .556-.4628 1.013-1.0182 1.013z" fill="url(#paint4_linear)"/><path opacity=".6" d="M43.578 72.6914H13.5617c-.594 0-1.08-.4798-1.08-1.0663v-.2132c0-.5865.486-1.0663 1.08-1.0663H43.578c.594 0 1.08.4798 1.08 1.0663v.2132c0 .5789-.486 1.0663-1.08 1.0663z" fill="url(#paint5_linear)"/><path d="M33.7166 26.1208c2.2275 0 4.0332-1.8067 4.0332-4.0354 0-2.2288-1.8057-4.0354-4.0332-4.0354-2.2276 0-4.0333 1.8066-4.0333 4.0354 0 2.2287 1.7972 4.0354 4.0333 4.0354zm0 2.0177c-2.6917 0-8.0666 1.3507-8.0666 4.0354v1.013c0 .5572.4556 1.0131 1.0125 1.0131h14.125c.5569 0 1.0125-.4559 1.0125-1.0131v-1.013c-.0169-2.6762-5.3918-4.0354-8.0834-4.0354z" fill="#fff"/></g><defs><linearGradient id="paint0_linear" x1="4.077" y1="45.0301" x2="67.3445" y2="50.4539" gradientUnits="userSpaceOnUse"><stop stop-color="#6CBCFC"/><stop offset="1" stop-color="#458DFC"/></linearGradient><linearGradient id="paint1_linear" x1="18.6708" y1="19.2924" x2="48.4654" y2="34.6685" gradientUnits="userSpaceOnUse"><stop stop-color="#B0F4FF"/><stop offset=".0856" stop-color="#A3F0FE"/><stop offset=".2972" stop-color="#8AE7FD"/><stop offset=".5161" stop-color="#77E1FD"/><stop offset=".7451" stop-color="#6DDDFC"/><stop offset="1" stop-color="#69DCFC"/></linearGradient><linearGradient id="paint2_linear" x1="54.8137" y1="49.257" x2="12.4813" y2="49.257" gradientUnits="userSpaceOnUse"><stop stop-color="#6CBCFC"/><stop offset="1" stop-color="#458DFC"/></linearGradient><linearGradient id="paint3_linear" x1="47.6026" y1="59.5877" x2="12.4813" y2="59.5877" gradientUnits="userSpaceOnUse"><stop stop-color="#6CBCFC"/><stop offset="1" stop-color="#458DFC"/></linearGradient><linearGradient id="paint4_linear" x1="41.2336" y1="65.7799" x2="12.4813" y2="65.7799" gradientUnits="userSpaceOnUse"><stop stop-color="#6CBCFC"/><stop offset="1" stop-color="#458DFC"/></linearGradient><linearGradient id="paint5_linear" x1="44.6574" y1="71.5124" x2="12.4813" y2="71.5124" gradientUnits="userSpaceOnUse"><stop stop-color="#6CBCFC"/><stop offset="1" stop-color="#458DFC"/></linearGradient><clipPath id="clip0"><path fill="#fff" d="M0 0h67.2917v95H0z"/></clipPath></defs></svg>