<svg width="68" height="95" fill="none" xmlns="http://www.w3.org/2000/svg"><g clip-path="url(#clip0)"><path d="M67.7105 90.4482c0 2.479-2.0064 4.4938-4.4855 4.4938l-58.0049.0663c-1.9733 0-3.648-1.2685-4.2533-3.0346a4.3891 4.3891 0 01-.2405-1.4426L.6351 6.8817c0-2.479 2.0065-4.4938 4.4855-4.4938l53.2624-.058 4.7425-.0084c2.4791 0 4.4938 2.0065 4.4938 4.4855l.0912 83.6412z" fill="url(#paint0_linear)"/><path d="M61.6995 89.9673l-54.962.0581c-1.335 0-2.4128-1.0779-2.4128-2.4128L4.2417 9.767c0-1.3348 1.078-2.4127 2.4128-2.4127l54.9538-.058c1.3348 0 2.4127 1.0778 2.4127 2.4127l.0829 77.8456c.0083 1.3266-1.0696 2.4127-2.4044 2.4127z" fill="#fff"/><path d="M53.9804 13.7136l-40.0877.0497c-1.3266 0-2.4128-1.0778-2.4128-2.4044l-.0083-6.6827c0-1.3266 1.0779-2.4127 2.4045-2.4127l40.096-.0415c1.3266 0 2.4127 1.0779 2.4127 2.4045l.0083 6.6826c-.0083 1.3266-1.0861 2.4045-2.4127 2.4045zM13.8761 3.4906c-.6467 0-1.1774.5306-1.1774 1.1773l.0083 6.6827c0 .6467.5307 1.1773 1.1774 1.1773l40.096-.0414c.6467 0 1.1773-.5306 1.1773-1.1774l-.0083-6.6826c0-.6467-.5306-1.1774-1.1773-1.1774l-40.096.0415z" fill="url(#paint1_linear)"/><path d="M52.8445 5.1156L15.41 5.1571a.743.743 0 01-.7462-.7462V.7877A.743.743 0 0115.41.0415L52.8362 0a.743.743 0 01.7462.7462v3.6232c.0083.4146-.3233.7462-.7379.7462z" fill="url(#paint2_linear)"/><path d="M15.4431 5.1571l37.3682-.0414a.7784.7784 0 00.7794-.7794V2.562l-38.9352.0415v1.7743c0 .4311.3565.7793.7876.7793zM28.5763 81.2118l-3.2335-19.5671-2.62 8.515-7.4952.0083a.8175.8175 0 01-.8209-.8209c0-.456.3648-.8208.8209-.8208l6.2929-.0083 4.3197-14.0203 3.2336 19.6168 4.1953-13.4731 2.2303 6.3842 5.0245-12.1797 4.8835 19.3184 1.8406-6.1438 5.3892-.0082c.456 0 .8209.3648.8209.8208a.8175.8175 0 01-.8209.8208l-4.1704.0083-3.1921 10.6541-5.1239-20.2635-4.784 11.5827-2.0148-5.7624-4.7757 15.3387z" fill="#58D6F4"/><path d="M23.0212 43.4871l-10.5381.0083c-1.6996 0-3.0926-1.3847-3.0926-3.0844L9.374 25.6777c0-1.6997 1.3846-3.0926 3.0843-3.0926l10.538-.0083c1.6997 0 3.0926 1.3846 3.0926 3.0843l.0166 14.7334c0 1.6997-1.3846 3.0843-3.0843 3.0926zM12.45 23.4805c-1.2105 0-2.1889.9867-2.1889 2.1972l.0166 14.7333c0 1.2106.9866 2.1889 2.1972 2.1889l10.538-.0083c1.2105 0 2.1889-.9866 2.1889-2.1971l-.0166-14.7334c0-1.2105-.9867-2.1889-2.1972-2.1889l-10.538.0083z" fill="url(#paint3_linear)"/><path d="M17.7398 40.6598c4.983-.0083 6.5334-2.8853 6.5334-2.8853-.2239-.2819-.5058-.5306-.8872-.7794-1.31-.854-2.3629-1.2188-2.8024-1.5836-.4477-.3565-.6964-.8788-.6964-.8788l-.2736.1658s-.1659-.5721-.0746-1.4427c0 0 .3896-.0995.6798-1.4178.4643.0912 1.0115-1.0861.7545-1.5173-.1658-.2819-.3648-.257-.5057-.1906.1409-.5887.7793-3.8471-2.7361-3.8471-3.5155 0-2.8771 3.2584-2.7278 3.8471-.141-.0664-.3399-.0913-.5058.1906-.257.4312.2985 1.6085.7628 1.5173.2902 1.3183.6882 1.4095.6882 1.4095.0995.8623-.0746 1.4427-.0746 1.4427l-.2736-.1658s-.2488.514-.6965.8788-1.4924.7379-2.8024 1.5919c-.3814.2488-.6716.4975-.8872.7794-.0083.0166 1.5505 2.8936 6.5252 2.8853z" fill="url(#paint4_linear)"/><path d="M50.5561 27.2779l-20.2884.0249a.6865.6865 0 01-.6882-.6882v-.116a.6865.6865 0 01.6882-.6882l20.2884-.0249a.6865.6865 0 01.6882.6882v.1161c0 .3814-.3151.6881-.6882.6881z" fill="url(#paint5_linear)"/><path d="M43.0941 31.1416l-12.8264.0166a.6865.6865 0 01-.6882-.6882v-.1161a.6864.6864 0 01.6882-.6881l12.8264-.0166a.6864.6864 0 01.6882.6881v.1161a.6865.6865 0 01-.6882.6882z" fill="url(#paint6_linear)"/><path opacity=".6" d="M57.5539 35.7348l-27.2779.0332a.6865.6865 0 01-.6882-.6882v-.116a.6865.6865 0 01.6882-.6882l27.2779-.0332a.6864.6864 0 01.6881.6882v.1161c-.0082.3814-.315.6881-.6881.6881z" fill="url(#paint7_linear)"/><path opacity=".6" d="M56.9652 48.6441l-45.5018.0498c-.3897 0-.7131-.3151-.7131-.7131v-.0663c0-.3897.3151-.713.7131-.713l45.5018-.0498c.3897 0 .713.3151.713.7131v.0663c0 .398-.3233.713-.713.713z" fill="url(#paint8_linear)"/><path opacity=".6" d="M57.5539 40.2452l-27.2779.0332a.6865.6865 0 01-.6882-.6882v-.1161a.6864.6864 0 01.6882-.6881l27.2779-.0332a.6864.6864 0 01.6881.6882v.1161a.6864.6864 0 01-.6881.6881z" fill="url(#paint9_linear)"/></g><defs><linearGradient id="paint0_linear" x1="-8.6535" y1="34.748" x2="76.9992" y2="62.5782" gradientUnits="userSpaceOnUse"><stop stop-color="#6CBCFC"/><stop offset=".1713" stop-color="#5EABFC"/><stop offset=".4084" stop-color="#509AFC"/><stop offset=".6698" stop-color="#4890FC"/><stop offset="1" stop-color="#458DFC"/></linearGradient><linearGradient id="paint1_linear" x1="-4.5899" y1="-21.375" x2="56.3866" y2="7.9897" gradientUnits="userSpaceOnUse"><stop stop-color="#CFE9FF"/><stop offset="1" stop-color="#A1D6FB"/></linearGradient><linearGradient id="paint2_linear" x1="14.6543" y1="2.5795" x2="53.5901" y2="2.5795" gradientUnits="userSpaceOnUse"><stop stop-color="#B0F4FF"/><stop offset="1" stop-color="#69DCFC"/></linearGradient><linearGradient id="paint3_linear" x1="14.7701" y1="29.2075" x2="24.5507" y2="41.8334" gradientUnits="userSpaceOnUse"><stop stop-color="#6CBCFC"/><stop offset="1" stop-color="#458DFC"/></linearGradient><linearGradient id="paint4_linear" x1="13.7093" y1="30.0293" x2="23.4899" y2="42.6553" gradientUnits="userSpaceOnUse"><stop stop-color="#B0F4FF"/><stop offset=".0994" stop-color="#A1EFFE"/><stop offset=".2994" stop-color="#88E7FD"/><stop offset=".5095" stop-color="#77E1FD"/><stop offset=".7344" stop-color="#6CDDFC"/><stop offset="1" stop-color="#69DCFC"/></linearGradient><linearGradient id="paint5_linear" x1="29.5807" y1="26.551" x2="51.24" y2="26.564" gradientUnits="userSpaceOnUse"><stop stop-color="#6CBCFC"/><stop offset="1" stop-color="#458DFC"/></linearGradient><linearGradient id="paint6_linear" x1="29.5847" y1="30.4037" x2="43.7814" y2="30.4037" gradientUnits="userSpaceOnUse"><stop stop-color="#6CBCFC"/><stop offset="1" stop-color="#458DFC"/></linearGradient><linearGradient id="paint7_linear" x1="29.5894" y1="35.0098" x2="58.2374" y2="35.0098" gradientUnits="userSpaceOnUse"><stop stop-color="#6CBCFC"/><stop offset="1" stop-color="#458DFC"/></linearGradient><linearGradient id="paint8_linear" x1="10.7499" y1="47.9272" x2="57.6759" y2="47.9272" gradientUnits="userSpaceOnUse"><stop stop-color="#6CBCFC"/><stop offset="1" stop-color="#458DFC"/></linearGradient><linearGradient id="paint9_linear" x1="29.594" y1="39.5191" x2="58.242" y2="39.5191" gradientUnits="userSpaceOnUse"><stop stop-color="#6CBCFC"/><stop offset="1" stop-color="#458DFC"/></linearGradient><clipPath id="clip0"><path fill="#fff" transform="translate(.6351)" d="M0 0h67.0754v95H0z"/></clipPath></defs></svg>