<svg width="132" height="115" fill="none" xmlns="http://www.w3.org/2000/svg"><g opacity=".3"><mask id="a" maskUnits="userSpaceOnUse" x="0" y="0" width="11" height="11"><path d="M5.2284 10.425c2.8875 0 5.2284-2.3338 5.2284-5.2126C10.4568 2.3337 8.1159 0 5.2284 0 2.3408 0 0 2.3337 0 5.2124c0 2.8788 2.3408 5.2126 5.2284 5.2126z" fill="url(#paint0_linear)"/></mask><g mask="url(#a)"><path d="M5.2284 10.425c2.8875 0 5.2284-2.3338 5.2284-5.2126C10.4568 2.3337 8.1159 0 5.2284 0 2.3408 0 0 2.3337 0 5.2124c0 2.8788 2.3408 5.2126 5.2284 5.2126z" fill="url(#paint1_linear)"/></g><mask id="b" maskUnits="userSpaceOnUse" x="30" y="0" width="11" height="11"><path d="M35.5095 10.425c2.8875 0 5.2283-2.3338 5.2283-5.2126C40.7378 2.3337 38.397 0 35.5095 0c-2.8876 0-5.2284 2.3337-5.2284 5.2124 0 2.8788 2.3408 5.2126 5.2284 5.2126z" fill="url(#paint2_linear)"/></mask><g mask="url(#b)"><path d="M35.5095 10.425c2.8875 0 5.2283-2.3338 5.2283-5.2126C40.7378 2.3337 38.397 0 35.5095 0c-2.8876 0-5.2284 2.3337-5.2284 5.2124 0 2.8788 2.3408 5.2126 5.2284 5.2126z" fill="url(#paint3_linear)"/></g><mask id="c" maskUnits="userSpaceOnUse" x="60" y="0" width="12" height="11"><path d="M65.7905 10.425c2.8876 0 5.2284-2.3338 5.2284-5.2126C71.0189 2.3337 68.6781 0 65.7905 0c-2.8875 0-5.2284 2.3337-5.2284 5.2124 0 2.8788 2.3409 5.2126 5.2284 5.2126z" fill="url(#paint4_linear)"/></mask><g mask="url(#c)"><path d="M65.7905 10.425c2.8876 0 5.2284-2.3338 5.2284-5.2126C71.0189 2.3337 68.6781 0 65.7905 0c-2.8875 0-5.2284 2.3337-5.2284 5.2124 0 2.8788 2.3409 5.2126 5.2284 5.2126z" fill="url(#paint5_linear)"/></g><mask id="d" maskUnits="userSpaceOnUse" x="90" y="0" width="12" height="11"><path d="M96.0716 10.425c2.8876 0 5.2284-2.3338 5.2284-5.2126C101.3 2.3337 98.9592 0 96.0716 0c-2.8876 0-5.2284 2.3337-5.2284 5.2124 0 2.8788 2.3408 5.2126 5.2284 5.2126z" fill="url(#paint6_linear)"/></mask><g mask="url(#d)"><path d="M96.0716 10.425c2.8876 0 5.2284-2.3338 5.2284-5.2126C101.3 2.3337 98.9592 0 96.0716 0c-2.8876 0-5.2284 2.3337-5.2284 5.2124 0 2.8788 2.3408 5.2126 5.2284 5.2126z" fill="url(#paint7_linear)"/></g><mask id="e" maskUnits="userSpaceOnUse" x="121" y="0" width="11" height="11"><path d="M126.353 10.425c2.887 0 5.228-2.3338 5.228-5.2126C131.581 2.3337 129.24 0 126.353 0c-2.888 0-5.229 2.3337-5.229 5.2124 0 2.8788 2.341 5.2126 5.229 5.2126z" fill="url(#paint8_linear)"/></mask><g mask="url(#e)"><path d="M126.353 10.425c2.887 0 5.228-2.3338 5.228-5.2126C131.581 2.3337 129.24 0 126.353 0c-2.888 0-5.229 2.3337-5.229 5.2124 0 2.8788 2.341 5.2126 5.229 5.2126z" fill="url(#paint9_linear)"/></g><mask id="f" maskUnits="userSpaceOnUse" x="0" y="26" width="11" height="11"><path d="M5.2284 36.5958c2.8875 0 5.2284-2.3337 5.2284-5.2124 0-2.8788-2.3409-5.2124-5.2284-5.2124C2.3408 26.171 0 28.5046 0 31.3834c0 2.8787 2.3408 5.2124 5.2284 5.2124z" fill="url(#paint10_linear)"/></mask><g mask="url(#f)"><path d="M5.2284 36.5958c2.8875 0 5.2284-2.3337 5.2284-5.2124 0-2.8788-2.3409-5.2124-5.2284-5.2124C2.3408 26.171 0 28.5046 0 31.3834c0 2.8787 2.3408 5.2124 5.2284 5.2124z" fill="url(#paint11_linear)"/></g><mask id="g" maskUnits="userSpaceOnUse" x="30" y="26" width="11" height="11"><path d="M35.5095 36.5958c2.8875 0 5.2283-2.3337 5.2283-5.2124 0-2.8788-2.3408-5.2124-5.2283-5.2124-2.8876 0-5.2284 2.3336-5.2284 5.2124 0 2.8787 2.3408 5.2124 5.2284 5.2124z" fill="url(#paint12_linear)"/></mask><g mask="url(#g)"><path d="M35.5095 36.5958c2.8875 0 5.2283-2.3337 5.2283-5.2124 0-2.8788-2.3408-5.2124-5.2283-5.2124-2.8876 0-5.2284 2.3336-5.2284 5.2124 0 2.8787 2.3408 5.2124 5.2284 5.2124z" fill="url(#paint13_linear)"/></g><mask id="h" maskUnits="userSpaceOnUse" x="60" y="26" width="12" height="11"><path d="M65.7905 36.5958c2.8876 0 5.2284-2.3337 5.2284-5.2124 0-2.8788-2.3408-5.2124-5.2284-5.2124-2.8875 0-5.2284 2.3336-5.2284 5.2124 0 2.8787 2.3409 5.2124 5.2284 5.2124z" fill="url(#paint14_linear)"/></mask><g mask="url(#h)"><path d="M65.7905 36.5958c2.8876 0 5.2284-2.3337 5.2284-5.2124 0-2.8788-2.3408-5.2124-5.2284-5.2124-2.8875 0-5.2284 2.3336-5.2284 5.2124 0 2.8787 2.3409 5.2124 5.2284 5.2124z" fill="url(#paint15_linear)"/></g><mask id="i" maskUnits="userSpaceOnUse" x="90" y="26" width="12" height="11"><path d="M96.0716 36.5958c2.8876 0 5.2284-2.3337 5.2284-5.2124 0-2.8788-2.3408-5.2124-5.2284-5.2124-2.8876 0-5.2284 2.3336-5.2284 5.2124 0 2.8787 2.3408 5.2124 5.2284 5.2124z" fill="url(#paint16_linear)"/></mask><g mask="url(#i)"><path d="M96.0716 36.5958c2.8876 0 5.2284-2.3337 5.2284-5.2124 0-2.8788-2.3408-5.2124-5.2284-5.2124-2.8876 0-5.2284 2.3336-5.2284 5.2124 0 2.8787 2.3408 5.2124 5.2284 5.2124z" fill="url(#paint17_linear)"/></g><mask id="j" maskUnits="userSpaceOnUse" x="121" y="26" width="11" height="11"><path d="M126.353 36.5958c2.887 0 5.228-2.3337 5.228-5.2124 0-2.8788-2.341-5.2124-5.228-5.2124-2.888 0-5.229 2.3336-5.229 5.2124 0 2.8787 2.341 5.2124 5.229 5.2124z" fill="url(#paint18_linear)"/></mask><g mask="url(#j)"><path d="M126.353 36.5958c2.887 0 5.228-2.3337 5.228-5.2124 0-2.8788-2.341-5.2124-5.228-5.2124-2.888 0-5.229 2.3336-5.229 5.2124 0 2.8787 2.341 5.2124 5.229 5.2124z" fill="url(#paint19_linear)"/></g><mask id="k" maskUnits="userSpaceOnUse" x="0" y="52" width="11" height="11"><path d="M5.2284 62.7125c2.8875 0 5.2284-2.3337 5.2284-5.2125 0-2.8788-2.3409-5.2125-5.2284-5.2125C2.3408 52.2875 0 54.6212 0 57.5c0 2.8788 2.3408 5.2125 5.2284 5.2125z" fill="url(#paint20_linear)"/></mask><g mask="url(#k)"><path d="M5.2284 62.7125c2.8875 0 5.2284-2.3337 5.2284-5.2125 0-2.8788-2.3409-5.2125-5.2284-5.2125C2.3408 52.2875 0 54.6212 0 57.5c0 2.8788 2.3408 5.2125 5.2284 5.2125z" fill="url(#paint21_linear)"/></g><mask id="l" maskUnits="userSpaceOnUse" x="30" y="52" width="11" height="11"><path d="M35.5095 62.7125c2.8875 0 5.2283-2.3337 5.2283-5.2125 0-2.8788-2.3408-5.2125-5.2283-5.2125-2.8876 0-5.2284 2.3337-5.2284 5.2125 0 2.8788 2.3408 5.2125 5.2284 5.2125z" fill="url(#paint22_linear)"/></mask><g mask="url(#l)"><path d="M35.5095 62.7125c2.8875 0 5.2283-2.3337 5.2283-5.2125 0-2.8788-2.3408-5.2125-5.2283-5.2125-2.8876 0-5.2284 2.3337-5.2284 5.2125 0 2.8788 2.3408 5.2125 5.2284 5.2125z" fill="url(#paint23_linear)"/></g><mask id="m" maskUnits="userSpaceOnUse" x="60" y="52" width="12" height="11"><path d="M65.7905 62.7125c2.8876 0 5.2284-2.3337 5.2284-5.2125 0-2.8788-2.3408-5.2125-5.2284-5.2125-2.8875 0-5.2284 2.3337-5.2284 5.2125 0 2.8788 2.3409 5.2125 5.2284 5.2125z" fill="url(#paint24_linear)"/></mask><g mask="url(#m)"><path d="M65.7905 62.7125c2.8876 0 5.2284-2.3337 5.2284-5.2125 0-2.8788-2.3408-5.2125-5.2284-5.2125-2.8875 0-5.2284 2.3337-5.2284 5.2125 0 2.8788 2.3409 5.2125 5.2284 5.2125z" fill="url(#paint25_linear)"/></g><mask id="n" maskUnits="userSpaceOnUse" x="90" y="52" width="12" height="11"><path d="M96.0716 62.7125c2.8876 0 5.2284-2.3337 5.2284-5.2125 0-2.8788-2.3408-5.2125-5.2284-5.2125-2.8876 0-5.2284 2.3337-5.2284 5.2125 0 2.8788 2.3408 5.2125 5.2284 5.2125z" fill="url(#paint26_linear)"/></mask><g mask="url(#n)"><path d="M96.0716 62.7125c2.8876 0 5.2284-2.3337 5.2284-5.2125 0-2.8788-2.3408-5.2125-5.2284-5.2125-2.8876 0-5.2284 2.3337-5.2284 5.2125 0 2.8788 2.3408 5.2125 5.2284 5.2125z" fill="url(#paint27_linear)"/></g><mask id="o" maskUnits="userSpaceOnUse" x="121" y="52" width="11" height="11"><path d="M126.353 62.7125c2.887 0 5.228-2.3337 5.228-5.2125 0-2.8788-2.341-5.2125-5.228-5.2125-2.888 0-5.229 2.3337-5.229 5.2125 0 2.8788 2.341 5.2125 5.229 5.2125z" fill="url(#paint28_linear)"/></mask><g mask="url(#o)"><path d="M126.353 62.7125c2.887 0 5.228-2.3337 5.228-5.2125 0-2.8788-2.341-5.2125-5.228-5.2125-2.888 0-5.229 2.3337-5.229 5.2125 0 2.8788 2.341 5.2125 5.229 5.2125z" fill="url(#paint29_linear)"/></g><mask id="p" maskUnits="userSpaceOnUse" x="0" y="78" width="11" height="11"><path d="M5.2284 88.8834c2.8875 0 5.2284-2.3338 5.2284-5.2125 0-2.8788-2.3409-5.2125-5.2284-5.2125C2.3408 78.4584 0 80.7921 0 83.6709c0 2.8787 2.3408 5.2125 5.2284 5.2125z" fill="url(#paint30_linear)"/></mask><g mask="url(#p)"><path d="M5.2284 88.8834c2.8875 0 5.2284-2.3338 5.2284-5.2125 0-2.8788-2.3409-5.2125-5.2284-5.2125C2.3408 78.4584 0 80.7921 0 83.6709c0 2.8787 2.3408 5.2125 5.2284 5.2125z" fill="url(#paint31_linear)"/></g><mask id="q" maskUnits="userSpaceOnUse" x="30" y="78" width="11" height="11"><path d="M35.5095 88.8834c2.8875 0 5.2283-2.3338 5.2283-5.2125 0-2.8788-2.3408-5.2125-5.2283-5.2125-2.8876 0-5.2284 2.3337-5.2284 5.2125 0 2.8787 2.3408 5.2125 5.2284 5.2125z" fill="url(#paint32_linear)"/></mask><g mask="url(#q)"><path d="M35.5095 88.8834c2.8875 0 5.2283-2.3338 5.2283-5.2125 0-2.8788-2.3408-5.2125-5.2283-5.2125-2.8876 0-5.2284 2.3337-5.2284 5.2125 0 2.8787 2.3408 5.2125 5.2284 5.2125z" fill="url(#paint33_linear)"/></g><mask id="r" maskUnits="userSpaceOnUse" x="60" y="78" width="12" height="11"><path d="M65.7905 88.8834c2.8876 0 5.2284-2.3338 5.2284-5.2125 0-2.8788-2.3408-5.2125-5.2284-5.2125-2.8875 0-5.2284 2.3337-5.2284 5.2125 0 2.8787 2.3409 5.2125 5.2284 5.2125z" fill="url(#paint34_linear)"/></mask><g mask="url(#r)"><path d="M65.7905 88.8834c2.8876 0 5.2284-2.3338 5.2284-5.2125 0-2.8788-2.3408-5.2125-5.2284-5.2125-2.8875 0-5.2284 2.3337-5.2284 5.2125 0 2.8787 2.3409 5.2125 5.2284 5.2125z" fill="url(#paint35_linear)"/></g><mask id="s" maskUnits="userSpaceOnUse" x="90" y="78" width="12" height="11"><path d="M96.0716 88.8834c2.8876 0 5.2284-2.3338 5.2284-5.2125 0-2.8788-2.3408-5.2125-5.2284-5.2125-2.8876 0-5.2284 2.3337-5.2284 5.2125 0 2.8787 2.3408 5.2125 5.2284 5.2125z" fill="url(#paint36_linear)"/></mask><g mask="url(#s)"><path d="M96.0716 88.8834c2.8876 0 5.2284-2.3338 5.2284-5.2125 0-2.8788-2.3408-5.2125-5.2284-5.2125-2.8876 0-5.2284 2.3337-5.2284 5.2125 0 2.8787 2.3408 5.2125 5.2284 5.2125z" fill="url(#paint37_linear)"/></g><mask id="t" maskUnits="userSpaceOnUse" x="121" y="78" width="11" height="11"><path d="M126.353 88.8834c2.887 0 5.228-2.3338 5.228-5.2125 0-2.8788-2.341-5.2125-5.228-5.2125-2.888 0-5.229 2.3337-5.229 5.2125 0 2.8787 2.341 5.2125 5.229 5.2125z" fill="url(#paint38_linear)"/></mask><g mask="url(#t)"><path d="M126.353 88.8834c2.887 0 5.228-2.3338 5.228-5.2125 0-2.8788-2.341-5.2125-5.228-5.2125-2.888 0-5.229 2.3337-5.229 5.2125 0 2.8787 2.341 5.2125 5.229 5.2125z" fill="url(#paint39_linear)"/></g><mask id="u" maskUnits="userSpaceOnUse" x="0" y="104" width="11" height="11"><path d="M5.2284 115c2.8875 0 5.2284-2.334 5.2284-5.212 0-2.879-2.3409-5.213-5.2284-5.213-2.8876 0-5.2284 2.334-5.2284 5.213C0 112.666 2.3408 115 5.2284 115z" fill="url(#paint40_linear)"/></mask><g mask="url(#u)"><path d="M5.2284 115c2.8875 0 5.2284-2.334 5.2284-5.212 0-2.879-2.3409-5.213-5.2284-5.213-2.8876 0-5.2284 2.334-5.2284 5.213C0 112.666 2.3408 115 5.2284 115z" fill="url(#paint41_linear)"/></g><mask id="v" maskUnits="userSpaceOnUse" x="30" y="104" width="11" height="11"><path d="M35.5095 115c2.8875 0 5.2283-2.334 5.2283-5.212 0-2.879-2.3408-5.213-5.2283-5.213-2.8876 0-5.2284 2.334-5.2284 5.213 0 2.878 2.3408 5.212 5.2284 5.212z" fill="url(#paint42_linear)"/></mask><g mask="url(#v)"><path d="M35.5095 115c2.8875 0 5.2283-2.334 5.2283-5.212 0-2.879-2.3408-5.213-5.2283-5.213-2.8876 0-5.2284 2.334-5.2284 5.213 0 2.878 2.3408 5.212 5.2284 5.212z" fill="url(#paint43_linear)"/></g><mask id="w" maskUnits="userSpaceOnUse" x="60" y="104" width="12" height="11"><path d="M65.7905 115c2.8876 0 5.2284-2.334 5.2284-5.212 0-2.879-2.3408-5.213-5.2284-5.213-2.8875 0-5.2284 2.334-5.2284 5.213 0 2.878 2.3409 5.212 5.2284 5.212z" fill="url(#paint44_linear)"/></mask><g mask="url(#w)"><path d="M65.7905 115c2.8876 0 5.2284-2.334 5.2284-5.212 0-2.879-2.3408-5.213-5.2284-5.213-2.8875 0-5.2284 2.334-5.2284 5.213 0 2.878 2.3409 5.212 5.2284 5.212z" fill="url(#paint45_linear)"/></g><mask id="x" maskUnits="userSpaceOnUse" x="90" y="104" width="12" height="11"><path d="M96.0716 115c2.8876 0 5.2284-2.334 5.2284-5.212 0-2.879-2.3408-5.213-5.2284-5.213-2.8876 0-5.2284 2.334-5.2284 5.213 0 2.878 2.3408 5.212 5.2284 5.212z" fill="url(#paint46_linear)"/></mask><g mask="url(#x)"><path d="M96.0716 115c2.8876 0 5.2284-2.334 5.2284-5.212 0-2.879-2.3408-5.213-5.2284-5.213-2.8876 0-5.2284 2.334-5.2284 5.213 0 2.878 2.3408 5.212 5.2284 5.212z" fill="url(#paint47_linear)"/></g><mask id="y" maskUnits="userSpaceOnUse" x="121" y="104" width="11" height="11"><path d="M126.353 115c2.887 0 5.228-2.334 5.228-5.212 0-2.879-2.341-5.213-5.228-5.213-2.888 0-5.229 2.334-5.229 5.213 0 2.878 2.341 5.212 5.229 5.212z" fill="url(#paint48_linear)"/></mask><g mask="url(#y)"><path d="M126.353 115c2.887 0 5.228-2.334 5.228-5.212 0-2.879-2.341-5.213-5.228-5.213-2.888 0-5.229 2.334-5.229 5.213 0 2.878 2.341 5.212 5.229 5.212z" fill="url(#paint49_linear)"/></g></g><defs><linearGradient id="paint0_linear" x1="54.996" y1="131.134" x2="-16.4057" y2="-50.67" gradientUnits="userSpaceOnUse"><stop/><stop offset="1" stop-color="#fff"/></linearGradient><linearGradient id="paint1_linear" x1="54.996" y1="131.134" x2="-16.4057" y2="-50.67" gradientUnits="userSpaceOnUse"><stop stop-color="#97C3F9"/><stop offset="1" stop-color="#93C1F9"/></linearGradient><linearGradient id="paint2_linear" x1="81.2005" y1="120.843" x2="9.7989" y2="-60.9613" gradientUnits="userSpaceOnUse"><stop/><stop offset="1" stop-color="#fff"/></linearGradient><linearGradient id="paint3_linear" x1="81.2005" y1="120.843" x2="9.7989" y2="-60.9613" gradientUnits="userSpaceOnUse"><stop stop-color="#97C3F9"/><stop offset="1" stop-color="#93C1F9"/></linearGradient><linearGradient id="paint4_linear" x1="107.405" y1="110.551" x2="36.0033" y2="-71.2526" gradientUnits="userSpaceOnUse"><stop/><stop offset="1" stop-color="#fff"/></linearGradient><linearGradient id="paint5_linear" x1="107.405" y1="110.551" x2="36.0033" y2="-71.2526" gradientUnits="userSpaceOnUse"><stop stop-color="#97C3F9"/><stop offset="1" stop-color="#93C1F9"/></linearGradient><linearGradient id="paint6_linear" x1="133.609" y1="100.259" x2="62.2075" y2="-81.5444" gradientUnits="userSpaceOnUse"><stop/><stop offset="1" stop-color="#fff"/></linearGradient><linearGradient id="paint7_linear" x1="133.609" y1="100.259" x2="62.2075" y2="-81.5444" gradientUnits="userSpaceOnUse"><stop stop-color="#97C3F9"/><stop offset="1" stop-color="#93C1F9"/></linearGradient><linearGradient id="paint8_linear" x1="159.813" y1="89.9679" x2="88.4119" y2="-91.8359" gradientUnits="userSpaceOnUse"><stop/><stop offset="1" stop-color="#fff"/></linearGradient><linearGradient id="paint9_linear" x1="159.813" y1="89.9679" x2="88.4119" y2="-91.8359" gradientUnits="userSpaceOnUse"><stop stop-color="#97C3F9"/><stop offset="1" stop-color="#93C1F9"/></linearGradient><linearGradient id="paint10_linear" x1="46.0538" y1="134.645" x2="-25.3466" y2="-47.1571" gradientUnits="userSpaceOnUse"><stop/><stop offset="1" stop-color="#fff"/></linearGradient><linearGradient id="paint11_linear" x1="46.0538" y1="134.645" x2="-25.3466" y2="-47.1571" gradientUnits="userSpaceOnUse"><stop stop-color="#97C3F9"/><stop offset="1" stop-color="#93C1F9"/></linearGradient><linearGradient id="paint12_linear" x1="72.2581" y1="124.354" x2=".8577" y2="-57.449" gradientUnits="userSpaceOnUse"><stop/><stop offset="1" stop-color="#fff"/></linearGradient><linearGradient id="paint13_linear" x1="72.2581" y1="124.354" x2=".8577" y2="-57.449" gradientUnits="userSpaceOnUse"><stop stop-color="#97C3F9"/><stop offset="1" stop-color="#93C1F9"/></linearGradient><linearGradient id="paint14_linear" x1="98.4624" y1="114.062" x2="27.0621" y2="-67.7403" gradientUnits="userSpaceOnUse"><stop/><stop offset="1" stop-color="#fff"/></linearGradient><linearGradient id="paint15_linear" x1="98.4624" y1="114.062" x2="27.0621" y2="-67.7403" gradientUnits="userSpaceOnUse"><stop stop-color="#97C3F9"/><stop offset="1" stop-color="#93C1F9"/></linearGradient><linearGradient id="paint16_linear" x1="124.667" y1="103.771" x2="53.2663" y2="-78.0318" gradientUnits="userSpaceOnUse"><stop/><stop offset="1" stop-color="#fff"/></linearGradient><linearGradient id="paint17_linear" x1="124.667" y1="103.771" x2="53.2663" y2="-78.0318" gradientUnits="userSpaceOnUse"><stop stop-color="#97C3F9"/><stop offset="1" stop-color="#93C1F9"/></linearGradient><linearGradient id="paint18_linear" x1="150.871" y1="93.4794" x2="79.4707" y2="-88.3231" gradientUnits="userSpaceOnUse"><stop/><stop offset="1" stop-color="#fff"/></linearGradient><linearGradient id="paint19_linear" x1="150.871" y1="93.4794" x2="79.4707" y2="-88.3231" gradientUnits="userSpaceOnUse"><stop stop-color="#97C3F9"/><stop offset="1" stop-color="#93C1F9"/></linearGradient><linearGradient id="paint20_linear" x1="37.1113" y1="138.158" x2="-34.2903" y2="-43.6458" gradientUnits="userSpaceOnUse"><stop/><stop offset="1" stop-color="#fff"/></linearGradient><linearGradient id="paint21_linear" x1="37.1113" y1="138.158" x2="-34.2903" y2="-43.6458" gradientUnits="userSpaceOnUse"><stop stop-color="#97C3F9"/><stop offset="1" stop-color="#93C1F9"/></linearGradient><linearGradient id="paint22_linear" x1="63.3157" y1="127.866" x2="-8.0859" y2="-53.9374" gradientUnits="userSpaceOnUse"><stop/><stop offset="1" stop-color="#fff"/></linearGradient><linearGradient id="paint23_linear" x1="63.3157" y1="127.866" x2="-8.0859" y2="-53.9374" gradientUnits="userSpaceOnUse"><stop stop-color="#97C3F9"/><stop offset="1" stop-color="#93C1F9"/></linearGradient><linearGradient id="paint24_linear" x1="89.5201" y1="117.575" x2="18.1185" y2="-64.2288" gradientUnits="userSpaceOnUse"><stop/><stop offset="1" stop-color="#fff"/></linearGradient><linearGradient id="paint25_linear" x1="89.5201" y1="117.575" x2="18.1185" y2="-64.2288" gradientUnits="userSpaceOnUse"><stop stop-color="#97C3F9"/><stop offset="1" stop-color="#93C1F9"/></linearGradient><linearGradient id="paint26_linear" x1="115.724" y1="107.283" x2="44.3227" y2="-74.5204" gradientUnits="userSpaceOnUse"><stop/><stop offset="1" stop-color="#fff"/></linearGradient><linearGradient id="paint27_linear" x1="115.724" y1="107.283" x2="44.3227" y2="-74.5204" gradientUnits="userSpaceOnUse"><stop stop-color="#97C3F9"/><stop offset="1" stop-color="#93C1F9"/></linearGradient><linearGradient id="paint28_linear" x1="141.929" y1="96.9919" x2="70.5271" y2="-84.8119" gradientUnits="userSpaceOnUse"><stop/><stop offset="1" stop-color="#fff"/></linearGradient><linearGradient id="paint29_linear" x1="141.929" y1="96.9919" x2="70.5271" y2="-84.8119" gradientUnits="userSpaceOnUse"><stop stop-color="#97C3F9"/><stop offset="1" stop-color="#93C1F9"/></linearGradient><linearGradient id="paint30_linear" x1="28.169" y1="141.67" x2="-43.2327" y2="-40.1339" gradientUnits="userSpaceOnUse"><stop/><stop offset="1" stop-color="#fff"/></linearGradient><linearGradient id="paint31_linear" x1="28.169" y1="141.67" x2="-43.2327" y2="-40.1339" gradientUnits="userSpaceOnUse"><stop stop-color="#97C3F9"/><stop offset="1" stop-color="#93C1F9"/></linearGradient><linearGradient id="paint32_linear" x1="54.3734" y1="131.378" x2="-17.0283" y2="-50.4254" gradientUnits="userSpaceOnUse"><stop/><stop offset="1" stop-color="#fff"/></linearGradient><linearGradient id="paint33_linear" x1="54.3734" y1="131.378" x2="-17.0283" y2="-50.4254" gradientUnits="userSpaceOnUse"><stop stop-color="#97C3F9"/><stop offset="1" stop-color="#93C1F9"/></linearGradient><linearGradient id="paint34_linear" x1="80.5777" y1="121.087" x2="9.1761" y2="-60.7168" gradientUnits="userSpaceOnUse"><stop/><stop offset="1" stop-color="#fff"/></linearGradient><linearGradient id="paint35_linear" x1="80.5777" y1="121.087" x2="9.1761" y2="-60.7168" gradientUnits="userSpaceOnUse"><stop stop-color="#97C3F9"/><stop offset="1" stop-color="#93C1F9"/></linearGradient><linearGradient id="paint36_linear" x1="106.782" y1="110.795" x2="35.3804" y2="-71.0084" gradientUnits="userSpaceOnUse"><stop/><stop offset="1" stop-color="#fff"/></linearGradient><linearGradient id="paint37_linear" x1="106.782" y1="110.795" x2="35.3804" y2="-71.0084" gradientUnits="userSpaceOnUse"><stop stop-color="#97C3F9"/><stop offset="1" stop-color="#93C1F9"/></linearGradient><linearGradient id="paint38_linear" x1="132.986" y1="100.504" x2="61.5847" y2="-81.3" gradientUnits="userSpaceOnUse"><stop/><stop offset="1" stop-color="#fff"/></linearGradient><linearGradient id="paint39_linear" x1="132.986" y1="100.504" x2="61.5847" y2="-81.3" gradientUnits="userSpaceOnUse"><stop stop-color="#97C3F9"/><stop offset="1" stop-color="#93C1F9"/></linearGradient><linearGradient id="paint40_linear" x1="19.2266" y1="145.182" x2="-52.1751" y2="-36.6219" gradientUnits="userSpaceOnUse"><stop/><stop offset="1" stop-color="#fff"/></linearGradient><linearGradient id="paint41_linear" x1="19.2266" y1="145.182" x2="-52.1751" y2="-36.6219" gradientUnits="userSpaceOnUse"><stop stop-color="#97C3F9"/><stop offset="1" stop-color="#93C1F9"/></linearGradient><linearGradient id="paint42_linear" x1="45.431" y1="134.89" x2="-25.9706" y2="-46.9134" gradientUnits="userSpaceOnUse"><stop/><stop offset="1" stop-color="#fff"/></linearGradient><linearGradient id="paint43_linear" x1="45.431" y1="134.89" x2="-25.9706" y2="-46.9134" gradientUnits="userSpaceOnUse"><stop stop-color="#97C3F9"/><stop offset="1" stop-color="#93C1F9"/></linearGradient><linearGradient id="paint44_linear" x1="71.6353" y1="124.599" x2=".2337" y2="-57.2047" gradientUnits="userSpaceOnUse"><stop/><stop offset="1" stop-color="#fff"/></linearGradient><linearGradient id="paint45_linear" x1="71.6353" y1="124.599" x2=".2337" y2="-57.2047" gradientUnits="userSpaceOnUse"><stop stop-color="#97C3F9"/><stop offset="1" stop-color="#93C1F9"/></linearGradient><linearGradient id="paint46_linear" x1="97.8397" y1="114.307" x2="26.438" y2="-67.4964" gradientUnits="userSpaceOnUse"><stop/><stop offset="1" stop-color="#fff"/></linearGradient><linearGradient id="paint47_linear" x1="97.8397" y1="114.307" x2="26.438" y2="-67.4964" gradientUnits="userSpaceOnUse"><stop stop-color="#97C3F9"/><stop offset="1" stop-color="#93C1F9"/></linearGradient><linearGradient id="paint48_linear" x1="124.044" y1="104.016" x2="52.6424" y2="-77.7879" gradientUnits="userSpaceOnUse"><stop/><stop offset="1" stop-color="#fff"/></linearGradient><linearGradient id="paint49_linear" x1="124.044" y1="104.016" x2="52.6424" y2="-77.7879" gradientUnits="userSpaceOnUse"><stop stop-color="#97C3F9"/><stop offset="1" stop-color="#93C1F9"/></linearGradient></defs></svg>