<svg width="80" height="72" fill="none" xmlns="http://www.w3.org/2000/svg"><g clip-path="url(#clip0)"><path d="M66.4755 14.0107H13.2584v57.1167h53.2171V14.0107z" fill="url(#paint0_linear)"/><path d="M13.0382 14.0107c.0642 0 .1284.0276.2202.0551v57.034c-4.1198.3212-7.5972-.7157-10.359-3.3765C.945 65.8332 0 63.6127 0 61.0987V34.4076c0-3.3949-.0092-6.7898-.0092-10.1847 0-4.1014 2.2113-7.0834 6.276-9.102 2.092-1.0276 4.4133-1.1836 6.7714-1.1102z" fill="url(#paint1_linear)"/><path d="M57.1809 14.0016h4.9822V71.109H17.5708V14.0199h5.2942v-.5964c0-2.0461.0092-4.1014-.0092-6.1475-.0183-1.4313.367-2.6792 1.4864-3.6518.7891-.679 1.6975-1.0276 2.7251-1.0276 3.1839-.0092 6.3586-.0092 9.5424-.0092 5.3492 0 10.7077.0092 16.0569 0 1.4038 0 2.5691.4588 3.4866 1.5231.7341.8533 1.0093 1.8534 1.0093 2.9728-.0092 2.1562 0 4.3125 0 6.4687-.0092.1192 0 .2569.0184.4496zm-28.5721 0h8.1569c4.7345 0 9.4781 0 14.2126.0091.3762 0 .4588-.1193.4588-.4771-.0184-1.6057 0-3.2114 0-4.817 0-.1285-.0184-.257-.0367-.3946H28.6088v5.6796z" fill="#fff"/><mask id="a" maskUnits="userSpaceOnUse" x="17" y="2" width="46" height="70"><path d="M57.1808 14.0016h4.9823V71.109H17.5708V14.0199h5.2942v-.5964c0-2.0461.0092-4.1014-.0092-6.1475-.0183-1.4313.367-2.6792 1.4864-3.6518.7891-.679 1.6975-1.0276 2.7251-1.0276 3.1839-.0092 6.3585-.0092 9.5424-.0092 5.3492 0 10.7076.0092 16.0569 0 1.4038 0 2.5691.4588 3.4866 1.5231.734.8533 1.0093 1.8534 1.0093 2.9728-.0092 2.1562 0 4.3125 0 6.4687-.0092.1192 0 .2569.0183.4496zm-28.572 0h8.1569c4.7345 0 9.4781 0 14.2126.0091.3762 0 .4588-.1193.4588-.4771-.0184-1.6057 0-3.2114 0-4.817 0-.1285-.0184-.257-.0367-.3946H28.6088v5.6796z" fill="#F7F9FC"/></mask><g mask="url(#a)"><path d="M58.096 0H21v14.02h37.096V0z" fill="url(#paint2_linear)"/></g><path d="M80 24.0762c0-3.7803-2.0644-6.5971-5.7346-8.6432-2.2571-1.257-4.8171-1.4956-7.4412-1.4405-.4037.0091-.3487.2202-.3487.4404v19.8096c0 11.6068 0 23.2045-.0092 34.8113v2.0645c1.6516.055 3.2206.0642 4.7621-.3028 5.2116-1.2295 8.7624-5.1107 8.7624-9.6892C80.0092 48.7854 80 36.4262 80 24.0762z" fill="url(#paint3_linear)"/><path d="M44.2161 46.7852v7.2485c0 .7616-.3854 1.1653-1.1378 1.1653a701.0831 701.0831 0 01-6.2209 0c-.6881 0-1.0735-.4313-1.0735-1.1561v-6.8265-.4312H28.618c-.8901 0-1.2571-.3579-1.2571-1.2479v-5.9181c0-.8992.3579-1.257 1.2479-1.257h7.1659v-.3854-6.8264c0-.8442.3762-1.2112 1.2204-1.2112h5.9181c.9267 0 1.2845.3487 1.2845 1.2937.0092 2.2572 0 4.5051 0 6.7623v.3762h.3946c2.2755 0 4.5509 0 6.8264.0091.835 0 1.1928.3671 1.1928 1.202v5.9457c0 .9083-.3486 1.257-1.2386 1.257-2.2664 0-4.5327 0-6.7898.0092-.0918-.0092-.2019-.0092-.367-.0092z" fill="url(#paint4_linear)"/></g><defs><linearGradient id="paint0_linear" x1="13.2597" y1="42.5656" x2="66.473" y2="42.5656" gradientUnits="userSpaceOnUse"><stop stop-color="#B0F4FF"/><stop offset="1" stop-color="#69DCFC"/></linearGradient><linearGradient id="paint1_linear" x1="0" y1="42.5746" x2="13.2597" y2="42.5746" gradientUnits="userSpaceOnUse"><stop stop-color="#6CBCFC"/><stop offset="1" stop-color="#458DFC"/></linearGradient><linearGradient id="paint2_linear" x1="20.9962" y1="7.0085" x2="58.0944" y2="7.0085" gradientUnits="userSpaceOnUse"><stop stop-color="#6CBCFC"/><stop offset="1" stop-color="#458DFC"/></linearGradient><linearGradient id="paint3_linear" x1="66.4686" y1="42.569" x2="80.0007" y2="42.569" gradientUnits="userSpaceOnUse"><stop stop-color="#6CBCFC"/><stop offset="1" stop-color="#458DFC"/></linearGradient><linearGradient id="paint4_linear" x1="27.3666" y1="42.5783" x2="52.6299" y2="42.5783" gradientUnits="userSpaceOnUse"><stop stop-color="#6CBCFC"/><stop offset="1" stop-color="#458DFC"/></linearGradient><clipPath id="clip0"><path fill="#fff" d="M0 0h80v71.1549H0z"/></clipPath></defs></svg>