<svg width="62" height="85" fill="none" xmlns="http://www.w3.org/2000/svg"><path d="M61.8574 26.4806l-.1917 39.8009-.0319 7.6982C61.6018 80.0968 55.7882 85.0319 48.633 85l-35.7441-.1597C5.7497 84.7924-.0319 79.8093 0 73.6762l.2236-47.499c.016-4.9512 3.8491-9.1357 9.0877-10.5252l.016-2.5554v-1.3097l43.5541.2077-.016 3.865c5.2227 1.4534 9.0079 5.6539 8.992 10.621z" fill="url(#paint0_linear)"/><path d="M56.1236 1.7728v.3514l-.0319 4.1526-.0319 4.0727v.4951c0 .7666-.6389 1.3895-1.4055 1.3895h-.3354l-2.1083-.0159-2.3158-.016-2.1082-.016-2.3159-.016-2.1402-.0319-2.3158-.016-2.1083-.0159-2.3318-.016-2.1242-.016-2.3159-.016-2.1082-.0319-2.3158-.016-2.1083-.016-2.3318-.0159-2.1242-.016-2.2999-.016-2.1082-.0159-2.3159-.016-2.1242-.016-2.3158-.0159-2.1243-.016h-.3354c-.7666 0-1.3895-.6389-1.3895-1.4055v-.3674l.064-8.2093v-.495C6.197.6228 6.8357 0 7.6183 0h.3354l4.44.032 4.4401.0319 2.1242.016 2.3159.016 2.1082.0159 4.4241.048 2.3158.0159 2.1083.016 2.3158.016 2.1083.0159 2.3158.016 2.1083.016 2.3158.016 2.1082.0159 2.3478.032 2.1083.0159 2.3158.016 2.1242.016h.3354c.7826.016 1.3895.6388 1.3895 1.4054z" fill="url(#paint1_linear)"/><path d="M56.1236 2.1402l-.0319 4.1366-.0319 4.0727-1.9006-.016-2.5235-.0159-2.3159-.016h-2.5394l-2.3159-.016-2.5235-.0159-2.3159-.016h-2.5394l-2.3159-.016-2.5394-.016-2.2999-.0159H27.391l-2.3158-.016-2.5395-.016-2.3159-.0159h-2.5234l-2.3159-.016-2.5395-.016-2.3158-.016H8.0017L6.133 10.094l.064-8.2094 4.44.016 4.8393.032 2.3159.016 2.5394.0159h2.3159l4.8394.032 2.5394.016h2.3159l2.5394.0159 2.2999.016 2.5395.016h2.3158l2.5395.0159 2.2999.016 2.5394.016h2.3159l2.5395.016 1.8526.0159z" fill="url(#paint2_linear)"/><path d="M61.8105 34.8841L.1768 34.5927.0475 61.9198l61.6338.2914.1292-27.3271z" fill="#F7F9FC"/><path d="M61.8215 34.884L.1877 34.5927l-.0233 4.9192 61.6338.2913.0233-4.9192z" fill="#FBFCF7"/><path d="M24.2127 45.5803l-3.9769-.0159.016-3.9929-5.4782-.016-.016 3.9769-3.9769-.0159-.0319 5.4622 3.9769.016-.016 3.9928 5.4782.016.016-3.9769 3.9769.016.0319-5.4623z" fill="url(#paint3_linear)"/><path d="M51.2364 46.906l-19.7088-.0958c-.527 0-.9583-.4312-.9583-.9583v-.4472c0-.5271.4313-.9583.9583-.9583l19.7088.0958c.527 0 .9583.4313.9583.9583v.4472c0 .5271-.4313.9583-.9583.9583z" fill="url(#paint4_linear)"/><path opacity=".5" d="M51.2204 52.7675l-19.7088-.0958c-.527 0-.9582-.4312-.9582-.9583v-.4472c0-.527.4312-.9583.9582-.9583l19.7088.0959c.5271 0 .9583.4312.9583.9582v.4472c0 .5271-.4312.9583-.9583.9583z" fill="url(#paint5_linear)"/><path opacity=".08" d="M6.133 1.7729v.3513l.032 4.1526.032 4.0567v.4952c0 .7666.6388 1.3895 1.4054 1.3895h.3354l2.1242-.016 2.3159-.016 2.1082-.0159 2.3159-.016 2.1082-.016 2.3158-.016 2.1083-.0159 2.3158-.016 2.1242-.016 2.3159-.0159 2.1082-.016 2.3159-.016 2.1082-.016 2.3159-.0159 2.1242-.016 2.3158-.016 2.1083-.0159 2.3158-.016 2.1083-.016 2.3158-.016 2.1242-.0159h.3354c.7666 0 1.3895-.6389 1.3895-1.4055v-.3674C31.3679 11.18 7.5226.3674 7.5226.3674c-.7667.016-1.3896.6388-1.3896 1.4055z" fill="#1A6FB5"/><defs><linearGradient id="paint0_linear" x1="0" y1="11.3333" x2="57.1389" y2="90.1944" gradientUnits="userSpaceOnUse"><stop stop-color="#6CBCFC"/><stop offset="1" stop-color="#458DFC"/></linearGradient><linearGradient id="paint1_linear" x1="-629.93" y1="-39.931" x2="-27.6041" y2="2.0221" gradientUnits="userSpaceOnUse"><stop stop-color="#B0F4FF"/><stop offset=".0525" stop-color="#A9F2FF"/><stop offset=".2879" stop-color="#8DE8FE"/><stop offset=".5247" stop-color="#79E1FD"/><stop offset=".7618" stop-color="#6DDDFC"/><stop offset="1" stop-color="#69DCFC"/></linearGradient><linearGradient id="paint2_linear" x1="6.1399" y1="6.1131" x2="56.1258" y2="6.1131" gradientUnits="userSpaceOnUse"><stop stop-color="#B0F4FF"/><stop offset=".0525" stop-color="#A9F2FF"/><stop offset=".2879" stop-color="#8DE8FE"/><stop offset=".5247" stop-color="#79E1FD"/><stop offset=".7618" stop-color="#6DDDFC"/><stop offset="1" stop-color="#69DCFC"/></linearGradient><linearGradient id="paint3_linear" x1="21.9779" y1="43.0953" x2="12.5975" y2="53.9124" gradientUnits="userSpaceOnUse"><stop stop-color="#6CBCFC"/><stop offset="1" stop-color="#458DFC"/></linearGradient><linearGradient id="paint4_linear" x1="52.3847" y1="45.671" x2="28.8866" y2="45.671" gradientUnits="userSpaceOnUse"><stop stop-color="#6CBCFC"/><stop offset="1" stop-color="#458DFC"/></linearGradient><linearGradient id="paint5_linear" x1="30.5519" y1="51.5322" x2="52.179" y2="51.5322" gradientUnits="userSpaceOnUse"><stop stop-color="#6CBCFC"/><stop offset="1" stop-color="#458DFC"/></linearGradient></defs></svg>