<svg width="92" height="90" fill="none" xmlns="http://www.w3.org/2000/svg"><g clip-path="url(#clip0)"><path d="M56.2156 43.3151l-9.0778 8.6651L8.8034 88.5661c-1.0064.9628-2.2974 1.4442-3.5884 1.4442-1.413 0-2.826-.5736-3.8528-1.7105-2.023-2.2329-1.7586-5.7255.5693-7.6306l45.2063-36.842 4.9811-4.056 4.0967 3.5439z" fill="url(#paint0_linear)"/><path d="M46.7413 52.4206l-8.9355 8.5217-.8234-8.7573 4.8896-3.9843 4.8693 4.2199z" fill="#3A81D6" fill-opacity=".8"/><path d="M91.978 29.9078c0 16.521-13.2965 29.9181-29.6834 29.9181-10.3282 0-19.4264-5.3158-24.743-13.3868-3.1208-4.732-4.9405-10.4166-4.9405-16.5313C32.6111 13.3868 45.9077 0 62.2946 0c7.4005 0 14.1606 2.7245 19.3552 7.2311 6.323 5.49 10.3282 13.6122 10.3282 22.6767z" fill="url(#paint1_linear)"/><path d="M62.2946 53.2093c12.7725 0 23.1267-10.4325 23.1267-23.3015 0-12.8691-10.3542-23.3015-23.1267-23.3015-12.7725 0-23.1267 10.4324-23.1267 23.3015 0 12.869 10.3542 23.3015 23.1267 23.3015z" fill="#fff"/><path opacity=".06" d="M91.978 29.9078c0 16.521-13.2965 29.9181-29.6834 29.9181-10.3282 0-19.4264-5.3158-24.743-13.3868 33.4752-2.745 42.2989-31.3213 44.1084-39.208 6.3128 5.49 10.318 13.6122 10.318 22.6767z" fill="#1A6FB5" fill-opacity=".5"/><path d="M62.2946 29.959c2.6837 0 4.8591-2.1918 4.8591-4.8958s-2.1754-4.8959-4.8591-4.8959-4.8592 2.1919-4.8592 4.8959 2.1653 4.8958 4.8592 4.8958zm0 2.448c-3.2428 0-9.7183 1.6388-9.7183 4.8958v1.2291c0 .676.5489 1.2291 1.2199 1.2291h17.0171c.6709 0 1.2199-.5531 1.2199-1.2291v-1.2291c-.0204-3.2468-6.4958-4.8958-9.7386-4.8958z" fill="url(#paint2_linear)"/></g><defs><linearGradient id="paint0_linear" x1="5.6748" y1="84.3265" x2="53.9244" y2="40.7922" gradientUnits="userSpaceOnUse"><stop stop-color="#67C3F3"/><stop offset="1" stop-color="#5A98F2"/></linearGradient><linearGradient id="paint1_linear" x1="50.0173" y1="2.1134" x2="72.7818" y2="52.9053" gradientUnits="userSpaceOnUse"><stop stop-color="#67C3F3"/><stop offset="1" stop-color="#5A98F2"/></linearGradient><linearGradient id="paint2_linear" x1="55.2686" y1="28.3947" x2="72.9196" y2="36.9391" gradientUnits="userSpaceOnUse"><stop stop-color="#B0F4FF"/><stop offset=".0711" stop-color="#A6F1FF"/><stop offset=".2937" stop-color="#8BE8FD"/><stop offset=".5209" stop-color="#78E1FD"/><stop offset=".7536" stop-color="#6DDDFC"/><stop offset="1" stop-color="#69DCFC"/></linearGradient><clipPath id="clip0"><path fill="#fff" d="M0 0h91.978v90H0z"/></clipPath></defs></svg>