<svg width="70" height="95" fill="none" xmlns="http://www.w3.org/2000/svg"><g clip-path="url(#clip0)"><path d="M69.4225 4.3103v86.3952c0 2.3841-1.9262 4.3103-4.3103 4.3103H4.3102C1.9263 95 0 93.0738 0 90.7055V4.3103C0 1.9263 1.9262 0 4.3103 0H65.128c2.3683 0 4.2945 1.9262 4.2945 4.3103z" fill="url(#paint0_linear)"/><path d="M65 7.9467v79.1066C65 89.2363 63.3075 91 61.2126 91H7.7873C5.6925 90.9855 4 89.2218 4 87.0533V7.9467C4 5.7637 5.6925 4 7.7873 4h53.4392C63.3075 4 65 5.7637 65 7.9467z" fill="url(#paint1_linear)"/><path d="M26.8722 18.2516v3.9314c0 .2842-.2211.5052-.5052.5052h-4.8156c-.2842 0-.5052.2211-.5052.5053v4.8155c0 .2842-.221.5052-.5052.5052h-3.9314c-.2842 0-.5052-.221-.5052-.5052v-4.8155c0-.2842-.2211-.5053-.5053-.5053h-4.7997c-.2842 0-.5052-.221-.5052-.5052v-3.9314c0-.2842.221-.5052.5052-.5052h4.8155c.2842 0 .5053-.221.5053-.5052v-4.8156c0-.2841.221-.5052.5052-.5052h3.9313c.2842 0 .5053.2211.5053.5052v4.8156c0 .2842.221.5052.5052.5052h4.7998c.2841 0 .5052.221.5052.5052z" fill="url(#paint2_linear)"/><path opacity=".5" d="M58.5757 39.6767H10.8468a.566.566 0 01-.5684-.5684v-1.8157a.566.566 0 01.5684-.5684h47.7289a.566.566 0 01.5684.5684v1.8157c-.0158.3158-.2526.5684-.5684.5684z" fill="url(#paint3_linear)"/><path d="M58.5757 17.0517H34.8928a.566.566 0 01-.5684-.5684v-1.7999a.566.566 0 01.5684-.5684h23.6829a.566.566 0 01.5684.5684v1.8157c-.0158.3-.2526.5526-.5684.5526z" fill="url(#paint4_linear)"/><path opacity=".5" d="M51.5656 24.7249H34.8928a.566.566 0 01-.5684-.5684v-1.8157a.566.566 0 01.5684-.5683h16.6728a.566.566 0 01.5683.5683v1.8157c-.0157.3158-.2526.5684-.5683.5684z" fill="url(#paint5_linear)"/><path opacity=".5" d="M58.5757 48.2973H10.8468a.566.566 0 01-.5684-.5684v-1.8157a.566.566 0 01.5684-.5684h47.7289a.566.566 0 01.5684.5684v1.8157c-.0158.3158-.2526.5684-.5684.5684z" fill="url(#paint6_linear)"/><path opacity=".5" d="M58.5757 56.9179H10.8468a.566.566 0 01-.5684-.5684v-1.8157a.566.566 0 01.5684-.5683h47.7289a.566.566 0 01.5684.5683v1.8315c-.0158.3-.2526.5526-.5684.5526z" fill="url(#paint7_linear)"/><path opacity=".5" d="M58.5757 65.5543H10.8468a.566.566 0 01-.5684-.5684v-1.8157a.566.566 0 01.5684-.5684h47.7289a.566.566 0 01.5684.5684v1.8157c-.0158.3158-.2526.5684-.5684.5684z" fill="url(#paint8_linear)"/><path opacity=".5" d="M58.5757 74.1749H10.8468a.566.566 0 01-.5684-.5684v-1.8157a.566.566 0 01.5684-.5684h47.7289a.566.566 0 01.5684.5684v1.8157c-.0158.3158-.2526.5684-.5684.5684z" fill="url(#paint9_linear)"/><path opacity=".5" d="M58.5757 82.7955H10.8468a.566.566 0 01-.5684-.5684v-1.8157a.566.566 0 01.5684-.5684h47.7289a.566.566 0 01.5684.5684v1.8157c-.0158.3158-.2526.5684-.5684.5684z" fill="url(#paint10_linear)"/><path opacity=".1" d="M69.4225 4.3103v86.3952c0 2.3841-1.9262 4.3103-4.3103 4.3103H4.3102C1.9263 95 0 93.0738 0 90.7055v-1.4999C37.0874 73.8906 54.3601 15.1571 58.2599 0h6.8523c2.3841 0 4.3103 1.9262 4.3103 4.3103z" fill="#1A6FB5" fill-opacity=".4"/></g><defs><linearGradient id="paint0_linear" x1="95" y1="126" x2="-6" y2="-5.5" gradientUnits="userSpaceOnUse"><stop offset=".3061" stop-color="#5BA7FC"/><stop offset="1" stop-color="#69B8FC"/></linearGradient><linearGradient id="paint1_linear" x1="8.6241" y1="7.0456" x2="57.9385" y2="78.0313" gradientUnits="userSpaceOnUse"><stop offset=".3061" stop-color="#fff"/><stop offset="1" stop-color="#fff"/></linearGradient><linearGradient id="paint2_linear" x1="10" y1="9.5" x2="25" y2="34" gradientUnits="userSpaceOnUse"><stop stop-color="#B0F4FF"/><stop offset=".3685" stop-color="#80E4FD"/><stop offset="1" stop-color="#6CDDFC"/></linearGradient><linearGradient id="paint3_linear" x1="10.2906" y1="38.2072" x2="59.1355" y2="38.2072" gradientUnits="userSpaceOnUse"><stop stop-color="#6CBCFC"/><stop offset="1" stop-color="#458DFC"/></linearGradient><linearGradient id="paint4_linear" x1="34.3248" y1="15.5844" x2="59.1355" y2="15.5844" gradientUnits="userSpaceOnUse"><stop stop-color="#6CBCFC"/><stop offset="1" stop-color="#458DFC"/></linearGradient><linearGradient id="paint5_linear" x1="34.3248" y1="23.2616" x2="52.1256" y2="23.2616" gradientUnits="userSpaceOnUse"><stop stop-color="#6CBCFC"/><stop offset="1" stop-color="#458DFC"/></linearGradient><linearGradient id="paint6_linear" x1="10.2906" y1="46.8317" x2="59.1355" y2="46.8317" gradientUnits="userSpaceOnUse"><stop stop-color="#6CBCFC"/><stop offset="1" stop-color="#458DFC"/></linearGradient><linearGradient id="paint7_linear" x1="10.2906" y1="55.4562" x2="59.1355" y2="55.4562" gradientUnits="userSpaceOnUse"><stop stop-color="#6CBCFC"/><stop offset="1" stop-color="#458DFC"/></linearGradient><linearGradient id="paint8_linear" x1="10.2906" y1="64.0807" x2="59.1355" y2="64.0807" gradientUnits="userSpaceOnUse"><stop stop-color="#6CBCFC"/><stop offset="1" stop-color="#458DFC"/></linearGradient><linearGradient id="paint9_linear" x1="10.2906" y1="72.7052" x2="59.1355" y2="72.7052" gradientUnits="userSpaceOnUse"><stop stop-color="#6CBCFC"/><stop offset="1" stop-color="#458DFC"/></linearGradient><linearGradient id="paint10_linear" x1="10.2906" y1="81.3297" x2="59.1355" y2="81.3297" gradientUnits="userSpaceOnUse"><stop stop-color="#6CBCFC"/><stop offset="1" stop-color="#458DFC"/></linearGradient><clipPath id="clip0"><path fill="#fff" d="M0 0h69.4225v95H0z"/></clipPath></defs></svg>